# xmcd
#
# Track frame offsets:
# 150
# 16233
# 32665
# 51970
# 67331
# 86453
# 103027
# 125867
# 148133
# 164791
#
# Disc length: 2403 seconds
#
# Revision: 1
# Processed by: cddbd v1.5.1PL0 Copyright (c) Steve Scherf et al.
# Submitted via: Easy CD Ripper v2.35
#
DISCID=9609610a
DTITLE=¤ý¤ß­â - Honey
DYEAR=2004
DGENRE=Hip-Hop
TTITLE0=HONEY - ¤ý¤ß­â
TTITLE1=ÃßÃßªO - ¤ý¤ß­â
TTITLE2=¯Í»H - ¤ý¤ß­â
TTITLE3=¤ì°¨±O«°°O - ¤ý¤ß­â
TTITLE4=­¸§a - ¤ý¤ß­â
TTITLE5=¥¢ÅÊºq°gÄÒ - ¤ý¤ß­â
TTITLE6=«C¬K¦Ò¨÷ - ¤ý¤ß­â
TTITLE7=©¯ºÖªº·Æµ¾Ál - ¤ý¤ß­â
TTITLE8=©¹©¯ºÖ¥Xµo§a - ¤ý¤ß­â
TTITLE9=·R±¡«°³ù - ¤ý¤ß­â
EXTD=
EXTT0=
EXTT1=
EXTT2=
EXTT3=
EXTT4=
EXTT5=
EXTT6=
EXTT7=
EXTT8=
EXTT9=
PLAYORDER=
